<?xml version="1.0" encoding="UTF-8" standalone="no"?>
<svg
   xmlns:dc="http://purl.org/dc/elements/1.1/"
   xmlns:cc="http://creativecommons.org/ns#"
   xmlns:rdf="http://www.w3.org/1999/02/22-rdf-syntax-ns#"
   xmlns:svg="http://www.w3.org/2000/svg"
   xmlns="http://www.w3.org/2000/svg"
   xmlns:sodipodi="http://sodipodi.sourceforge.net/DTD/sodipodi-0.dtd"
   xmlns:inkscape="http://www.inkscape.org/namespaces/inkscape"
   width="24"
   height="24"
   version="1.1"
   id="svg12"
   sodipodi:docname="fl-round.svg"
   inkscape:version="0.92.4 (5da689c313, 2019-01-14)">
  <metadata
     id="metadata18">
    <rdf:RDF>
      <cc:Work
         rdf:about="">
        <dc:format>image/svg+xml</dc:format>
        <dc:type
           rdf:resource="http://purl.org/dc/dcmitype/StillImage" />
        <dc:title></dc:title>
      </cc:Work>
    </rdf:RDF>
  </metadata>
  <defs
     id="defs16" />
  <sodipodi:namedview
     pagecolor="#ffffff"
     bordercolor="#666666"
     borderopacity="1"
     objecttolerance="10"
     gridtolerance="10"
     guidetolerance="10"
     inkscape:pageopacity="0"
     inkscape:pageshadow="2"
     inkscape:window-width="1334"
     inkscape:window-height="953"
     id="namedview14"
     showgrid="false"
     inkscape:zoom="10.195489"
     inkscape:cx="22.444297"
     inkscape:cy="18.028761"
     inkscape:window-x="276"
     inkscape:window-y="162"
     inkscape:window-maximized="0"
     inkscape:current-layer="svg12" />
  <g
     id="g3739"
     transform="matrix(0.61790844,0,0,0.61790844,-0.36363799,-0.2920958)">
    <circle
       r="19.420353"
       cy="19.893066"
       cx="20.008844"
       id="path24"
       style="fill:#5fbc39;fill-opacity:1;stroke-width:0.68275863" />
    <g
       transform="translate(-37.266609,0.16343591)"
       id="g30">
      <path
         style="fill:#ffffff;fill-rule:evenodd;stroke-width:0.91120678"
         inkscape:connector-curvature="0"
         id="path6"
         d="m 58.521238,37.083593 c -0.01822,0.04738 -0.08019,0.05923 -0.114812,0.02095 -0.478384,-0.5285 -3.268499,-3.521813 -7.439093,-6.360222 -2.393739,-1.694845 -3.331371,-2.745466 -3.602911,-3.085347 -0.03645,-0.04556 0,-0.114812 0.05832,-0.112078 0.277919,0.01549 0.923964,0.03918 1.740406,-0.01458 0.05467,-0.0037 0.08201,-0.06197 0.05467,-0.106611 -0.350815,-0.537612 -2.03837,-3.225672 -2.15956,-6.232654 -0.0018,-0.05467 0.05467,-0.08929 0.102051,-0.06379 0.255138,0.145793 0.953122,0.512098 1.84246,0.776348 0.05012,0.01458 0.0975,-0.03007 0.08656,-0.08019 -0.133036,-0.625999 -0.72532,-3.768751 -0.125746,-6.95433 0.01094,-0.05649 0.08019,-0.07655 0.118457,-0.03645 0.177686,0.196821 0.624176,0.633288 1.409637,1.089803 0.03645,0.02187 0.08201,0.0054 0.0975,-0.03645 0.191353,-0.548546 1.406903,-3.881741 3.459852,-5.880928 0.04009,-0.039184 0.107522,-0.014579 0.114812,0.041 0.898449,5.891862 5.98845,7.234981 8.394947,12.424304 1.614659,3.48081 -0.430089,5.394343 -1.10256,5.904619 -0.05649,0.04101 -0.02278,0.130303 0.04739,0.123925 3.840736,-0.309811 5.430792,-3.79062 5.847213,-4.89956 0.02734,-0.07107 0.131213,-0.05285 0.133947,0.02278 0.268807,8.206327 -6.394848,8.692912 -7.451848,8.724804 -0.08838,0.0018 -0.176775,-0.01822 -0.255138,-0.06014 -6.024899,-3.212003 -5.995741,-9.613231 -5.933779,-10.825136 0.0018,-0.03645 -0.05012,-0.0483 -0.06379,-0.01367 -3.028852,7.320635 2.185074,11.457514 4.043024,13.26717 0.744456,0.72532 1.073402,1.36681 0.695251,2.367315" />
      <path
         style="fill:#ffffff;fill-rule:evenodd;stroke-width:0.91120678"
         inkscape:connector-curvature="0"
         id="path8"
         d="m 59.437912,2.3575055 c 0.04829,-0.054673 0.139414,-0.015489 0.130302,0.058315 -0.136681,1.1180508 -0.444669,5.8289897 3.328638,9.9230405 4.241667,4.569701 3.781509,8.055068 2.268905,11.291673 -0.03462,0.07289 -0.145793,0.0483 -0.14306,-0.03371 0.02734,-0.872936 -0.209577,-2.678948 -3.161886,-5.943802 C 57.18632,12.486476 53.908709,8.6831009 59.437,2.3556813" />
    </g>
  </g>
</svg>
